<svg width="819" height="285" viewBox="0 0 819 285" fill="none" xmlns="http://www.w3.org/2000/svg">
<g clip-path="url(#clip0_203_2)">
<mask id="mask0_203_2" style="mask-type:luminance" maskUnits="userSpaceOnUse" x="89" y="151" width="135" height="135">
<path d="M160.469 151.325L89.4191 213.95L152.044 285L223.094 222.375L160.469 151.325Z" fill="white"/>
</mask>
<g mask="url(#mask0_203_2)">
<path d="M204.165 223.279L186.18 239.131C183.516 241.479 180.095 242.522 176.531 242.507L123.478 239.163L123.364 207.701C130.997 216.361 148.124 217.44 156.783 209.808L159.004 207.851C167.588 218.038 177.821 222.038 190.33 216.535C191.192 216.17 191.832 216.001 192.498 215.414C195.749 213.731 200.07 215.052 201.752 218.304L204.165 223.279Z" fill="#F57601" stroke="black" stroke-width="2" stroke-miterlimit="10" stroke-linecap="round" stroke-linejoin="round"/>
<path d="M122.952 247.518L180.182 251.125C183.523 251.336 187.166 250.097 189.831 247.749L210.036 229.94" stroke="black" stroke-width="2" stroke-miterlimit="10" stroke-linecap="round" stroke-linejoin="round"/>
<path d="M146.002 231.147C147.841 229.525 148.018 226.72 146.397 224.881C144.776 223.041 141.97 222.864 140.131 224.486C138.291 226.107 138.115 228.912 139.736 230.752C141.357 232.591 144.163 232.768 146.002 231.147Z" fill="black" stroke="black" stroke-width="2" stroke-miterlimit="10" stroke-linecap="round" stroke-linejoin="round"/>
<path d="M159.907 226.781L169.899 217.974" stroke="black" stroke-width="2" stroke-miterlimit="10" stroke-linecap="round" stroke-linejoin="round"/>
<path d="M170.219 229.527L182.431 218.764" stroke="black" stroke-width="2" stroke-miterlimit="10" stroke-linecap="round" stroke-linejoin="round"/>
<path d="M153.545 161.373L151.623 191.868C151.175 198.97 154.54 205.473 160.373 209.405" stroke="black" stroke-width="5" stroke-miterlimit="10" stroke-linecap="round" stroke-linejoin="round"/>
<path d="M125.321 209.922C128.366 204.871 129.401 198.436 128.294 192.704L126.901 184.858" stroke="black" stroke-width="5" stroke-miterlimit="10" stroke-linecap="round" stroke-linejoin="round"/>
</g>
<mask id="mask1_203_2" style="mask-type:luminance" maskUnits="userSpaceOnUse" x="21" y="133" width="118" height="118">
<path d="M138.279 159.188L47.0174 133.864L21.6933 225.126L112.955 250.45L138.279 159.188Z" fill="white"/>
</mask>
<g mask="url(#mask1_203_2)">
<path d="M101.861 235.085L78.7604 228.675C75.3381 227.726 72.5966 225.429 70.663 222.435L44.4939 176.165L70.7885 158.889C67.7021 170.012 76.1504 184.95 87.2729 188.036L90.1248 188.827C86.2785 201.582 88.5152 212.339 99.9558 219.813C100.732 220.336 101.223 220.779 102.079 221.017C105.264 222.822 106.517 227.163 104.711 230.348L101.861 235.085Z" fill="black" stroke="black" stroke-width="2" stroke-miterlimit="10" stroke-linecap="round" stroke-linejoin="round"/>
<path d="M37.2073 180.287L65.4369 230.2C67.0854 233.115 70.112 235.49 73.5343 236.44L99.4869 243.641" stroke="black" stroke-width="5" stroke-miterlimit="10" stroke-linecap="round" stroke-linejoin="round"/>
<path d="M63.5093 190.656C65.8719 191.312 68.3187 189.928 68.9743 187.566C69.6299 185.203 68.246 182.756 65.8834 182.101C63.5208 181.445 61.0741 182.829 60.4185 185.191C59.7629 187.554 61.1467 190.001 63.5093 190.656Z" fill="#F57601" stroke="black" stroke-width="2" stroke-miterlimit="10" stroke-linecap="round" stroke-linejoin="round"/>
<path d="M74.7602 199.922L87.5939 203.483" stroke="#F57601" stroke-width="2" stroke-miterlimit="10" stroke-linecap="round" stroke-linejoin="round"/>
<path d="M78.09 210.06L93.7756 214.413" stroke="#F57601" stroke-width="2" stroke-miterlimit="10" stroke-linecap="round" stroke-linejoin="round"/>
<path d="M126.08 158.875L99.4839 173.917C93.2903 177.42 89.6799 183.79 89.5708 190.824" stroke="#F57601" stroke-width="5" stroke-miterlimit="10" stroke-linecap="round" stroke-linejoin="round"/>
<path d="M69.997 161.741C75.8905 161.534 81.8467 158.887 86.044 154.83L91.8569 149.378" stroke="#F57601" stroke-width="5" stroke-miterlimit="10" stroke-linecap="round" stroke-linejoin="round"/>
</g>
<mask id="mask2_203_2" style="mask-type:luminance" maskUnits="userSpaceOnUse" x="144" y="34" width="111" height="111">
<path d="M144.976 128.306L238.36 144.097L254.151 50.7126L160.767 34.9211L144.976 128.306Z" fill="white"/>
</mask>
<g mask="url(#mask2_203_2)">
<path d="M173.385 49.0615L197.022 53.0589C200.524 53.6511 203.488 55.653 205.719 58.4318L236.514 101.761L212.138 121.653C214.063 110.271 204.121 96.2833 192.74 94.3587L189.822 93.8652C192.334 80.7823 189.002 70.3131 176.852 64.0562C176.026 63.6163 175.492 63.2258 174.616 63.0777C171.263 61.6101 169.569 57.4215 171.037 54.0677L173.385 49.0615Z" fill="#F57601" stroke="black" stroke-width="2" stroke-miterlimit="10" stroke-linecap="round" stroke-linejoin="round"/>
<path d="M243.337 96.9116L210.118 50.1705C208.178 47.4411 204.923 45.3898 201.421 44.7976L174.865 40.3068" stroke="black" stroke-width="2" stroke-miterlimit="10" stroke-linecap="round" stroke-linejoin="round"/>
<path d="M216.107 89.305C213.69 88.8962 211.399 90.5246 210.99 92.9422C210.581 95.3597 212.209 97.651 214.627 98.0598C217.045 98.4686 219.336 96.8402 219.745 94.4227C220.153 92.0051 218.525 89.7138 216.107 89.305Z" fill="black" stroke="black" stroke-width="2" stroke-miterlimit="10" stroke-linecap="round" stroke-linejoin="round"/>
<path d="M203.962 81.2478L190.83 79.0271" stroke="black" stroke-width="2" stroke-miterlimit="10" stroke-linecap="round" stroke-linejoin="round"/>
<path d="M199.606 71.5061L183.556 68.7919" stroke="black" stroke-width="2" stroke-miterlimit="10" stroke-linecap="round" stroke-linejoin="round"/>
<path d="M157.142 127.361L182.048 109.66C187.848 105.538 190.783 98.8304 190.167 91.8223" stroke="black" stroke-width="5" stroke-miterlimit="10" stroke-linecap="round" stroke-linejoin="round"/>
<path d="M212.632 118.734C206.791 119.548 201.139 122.794 197.382 127.262L192.161 133.283" stroke="black" stroke-width="5" stroke-miterlimit="10" stroke-linecap="round" stroke-linejoin="round"/>
</g>
<mask id="mask3_203_2" style="mask-type:luminance" maskUnits="userSpaceOnUse" x="156" y="103" width="120" height="120">
<path d="M156.079 132.982L185.678 222.948L275.644 193.349L246.046 103.383L156.079 132.982Z" fill="white"/>
</mask>
<g mask="url(#mask3_203_2)">
<path d="M239.425 121.141L246.917 143.914C248.027 147.287 247.639 150.842 246.222 154.113L222.264 201.565L193.297 189.284C204.262 185.677 211.997 170.358 208.39 159.393L207.465 156.582C220.209 152.7 227.914 144.869 227.78 131.203C227.784 130.267 227.88 129.613 227.603 128.769C227.336 125.118 230.251 121.666 233.902 121.4L239.425 121.141Z" fill="black" stroke="black" stroke-width="2" stroke-miterlimit="10" stroke-linecap="round" stroke-linejoin="round"/>
<path d="M229.736 205.338L255.582 154.149C257.091 151.16 257.387 147.324 256.277 143.95L247.86 118.366" stroke="black" stroke-width="5" stroke-miterlimit="10" stroke-linecap="round" stroke-linejoin="round"/>
<path d="M223.761 177.704C222.995 175.375 220.485 174.108 218.156 174.874C215.827 175.641 214.56 178.15 215.327 180.479C216.093 182.808 218.602 184.075 220.931 183.309C223.26 182.542 224.527 180.033 223.761 177.704Z" fill="#F57601" stroke="black" stroke-width="2" stroke-miterlimit="10" stroke-linecap="round" stroke-linejoin="round"/>
<path d="M225.222 163.203L221.059 150.551" stroke="#F57601" stroke-width="2" stroke-miterlimit="10" stroke-linecap="round" stroke-linejoin="round"/>
<path d="M231.806 154.805L226.719 139.342" stroke="#F57601" stroke-width="2" stroke-miterlimit="10" stroke-linecap="round" stroke-linejoin="round"/>
<path d="M162.591 143.303L189.867 157.074C196.219 160.281 203.521 159.748 209.433 155.934" stroke="#F57601" stroke-width="5" stroke-miterlimit="10" stroke-linecap="round" stroke-linejoin="round"/>
<path d="M196.109 188.359C192.665 183.572 187.156 180.088 181.452 178.849L173.691 177.04" stroke="#F57601" stroke-width="5" stroke-miterlimit="10" stroke-linecap="round" stroke-linejoin="round"/>
</g>
<mask id="mask4_203_2" style="mask-type:luminance" maskUnits="userSpaceOnUse" x="56" y="0" width="135" height="134">
<path d="M123.288 133.94L190.025 66.7375L122.823 0.00029326L56.0854 67.2027L123.288 133.94Z" fill="white"/>
</mask>
<g mask="url(#mask4_203_2)">
<path d="M74.9134 65.0438L91.8063 48.0333C94.309 45.5132 97.6531 44.2459 101.21 44.0243L154.367 43.84L156.569 75.2248C148.379 67.0912 131.218 67.1507 123.084 75.3409L120.999 77.441C111.757 67.846 101.281 64.5338 89.1648 70.8543C88.3291 71.2758 87.702 71.4872 87.0763 72.1172C83.9436 74.0116 79.5451 72.9805 77.6507 69.8478L74.9134 65.0438Z" fill="black" stroke="black" stroke-width="2" stroke-miterlimit="10" stroke-linecap="round" stroke-linejoin="round"/>
<path d="M154.339 35.4688L96.9956 35.6675C93.6471 35.6792 90.0944 37.1565 87.5918 39.6765L68.6132 58.7871" stroke="black" stroke-width="5" stroke-miterlimit="10" stroke-linecap="round" stroke-linejoin="round"/>
<path d="M132.426 53.3339C130.698 55.0736 130.708 57.8846 132.447 59.6123C134.187 61.34 136.998 61.3303 138.726 59.5905C140.454 57.8508 140.444 55.0398 138.704 53.3121C136.964 51.5844 134.153 51.5941 132.426 53.3339Z" fill="#F57601" stroke="black" stroke-width="2" stroke-miterlimit="10" stroke-linecap="round" stroke-linejoin="round"/>
<path d="M118.841 58.613L109.456 68.0633" stroke="#F57601" stroke-width="2" stroke-miterlimit="10" stroke-linecap="round" stroke-linejoin="round"/>
<path d="M108.369 56.5564L96.8987 68.1067" stroke="#F57601" stroke-width="2" stroke-miterlimit="10" stroke-linecap="round" stroke-linejoin="round"/>
<path d="M129.53 123.454L129.424 92.8988C129.399 85.7833 125.61 79.5179 119.529 75.9812" stroke="#F57601" stroke-width="5" stroke-miterlimit="10" stroke-linecap="round" stroke-linejoin="round"/>
<path d="M154.469 73.1393C151.767 78.3807 151.161 84.8706 152.646 90.5161L154.556 98.253" stroke="#F57601" stroke-width="5" stroke-miterlimit="10" stroke-linecap="round" stroke-linejoin="round"/>
</g>
<mask id="mask5_203_2" style="mask-type:luminance" maskUnits="userSpaceOnUse" x="9" y="63" width="115" height="116">
<path d="M123.74 155.962L101.464 63.9084L9.41066 86.1841L31.6863 178.237L123.74 155.962Z" fill="white"/>
</mask>
<g mask="url(#mask5_203_2)">
<path d="M39.7123 161.07L34.0737 137.769C33.2384 134.317 33.911 130.804 35.5858 127.658L63.2788 82.284L91.1649 96.8517C79.9459 99.5666 71.0057 114.215 73.7205 125.434L74.4166 128.311C61.402 131.156 53.0924 138.343 52.128 151.975C52.0492 152.908 51.9007 153.552 52.1096 154.415C52.0819 158.076 48.8991 161.283 45.2383 161.255L39.7123 161.07Z" fill="#F57601" stroke="black" stroke-width="2" stroke-miterlimit="10" stroke-linecap="round" stroke-linejoin="round"/>
<path d="M56.1332 77.9231L26.2596 126.87C24.5152 129.728 23.9122 133.529 24.7476 136.981L31.0822 163.158" stroke="black" stroke-width="2" stroke-miterlimit="10" stroke-linecap="round" stroke-linejoin="round"/>
<path d="M59.8696 105.948C60.4463 108.331 62.8457 109.795 65.2288 109.218C67.6119 108.642 69.0763 106.242 68.4996 103.859C67.9229 101.476 65.5236 100.012 63.1404 100.588C60.7573 101.165 59.2929 103.564 59.8696 105.948Z" fill="black" stroke="black" stroke-width="2" stroke-miterlimit="10" stroke-linecap="round" stroke-linejoin="round"/>
<path d="M57.2488 120.285L60.3814 133.23" stroke="black" stroke-width="2" stroke-miterlimit="10" stroke-linecap="round" stroke-linejoin="round"/>
<path d="M50.011 128.126L53.8397 143.948" stroke="black" stroke-width="2" stroke-miterlimit="10" stroke-linecap="round" stroke-linejoin="round"/>
<path d="M118.078 145.151L91.997 129.233C85.9233 125.526 78.6016 125.471 72.403 128.798" stroke="black" stroke-width="5" stroke-miterlimit="10" stroke-linecap="round" stroke-linejoin="round"/>
<path d="M88.2882 97.548C91.3368 102.596 96.5476 106.512 102.134 108.205L109.725 110.631" stroke="black" stroke-width="5" stroke-miterlimit="10" stroke-linecap="round" stroke-linejoin="round"/>
</g>
</g>
<path d="M296.04 141.98C298.52 138.3 300.96 134.92 303.36 131.84C305.8 128.72 308.12 126.04 310.32 123.8C312.52 121.56 314.54 119.82 316.38 118.58C318.22 117.34 319.82 116.72 321.18 116.72C321.7 116.72 322.26 116.92 322.86 117.32C323.5 117.72 324.08 118.24 324.6 118.88C325.16 119.52 325.62 120.22 325.98 120.98C326.34 121.7 326.52 122.4 326.52 123.08C324.04 123.88 321.6 124.94 319.2 126.26C316.84 127.54 314.56 129.04 312.36 130.76C310.2 132.44 308.12 134.32 306.12 136.4C304.16 138.48 302.38 140.7 300.78 143.06C301.42 144.7 302.2 146.46 303.12 148.34C304.08 150.18 305.12 151.98 306.24 153.74C307.36 155.46 308.56 157.06 309.84 158.54C311.12 160.02 312.42 161.2 313.74 162.08C313.54 162.52 313.2 162.94 312.72 163.34C312.24 163.74 311.72 164.1 311.16 164.42C310.6 164.78 310 165.06 309.36 165.26C308.76 165.46 308.2 165.56 307.68 165.56C306.64 165.56 305.68 165.06 304.8 164.06C303.92 163.1 303.02 161.64 302.1 159.68C301.22 157.68 300.28 155.22 299.28 152.3C298.32 149.34 297.24 145.9 296.04 141.98ZM286.98 165.86C285.46 165.5 284.2 164.86 283.2 163.94C282.2 163.06 281.28 161.94 280.44 160.58C280.8 159.82 281.22 158.82 281.7 157.58C282.22 156.34 282.84 154.82 283.56 153.02C284.28 151.18 285.14 149 286.14 146.48C287.14 143.92 288.3 140.94 289.62 137.54C290.46 135.38 291.14 133.56 291.66 132.08C292.22 130.6 292.68 129.16 293.04 127.76C293.44 126.32 293.82 124.74 294.18 123.02C294.54 121.3 294.96 119.12 295.44 116.48C297.12 116.8 298.64 117.54 300 118.7C301.4 119.86 302.6 121.26 303.6 122.9C303.16 123.46 302.64 124.32 302.04 125.48C301.48 126.6 300.84 127.96 300.12 129.56C299.4 131.16 298.6 132.94 297.72 134.9C296.84 136.86 295.92 138.94 294.96 141.14C292.8 145.94 291.1 150.34 289.86 154.34C288.62 158.3 287.66 162.14 286.98 165.86ZM338.984 136.16C338.824 138.64 338.384 140.78 337.664 142.58C336.944 144.34 335.904 145.9 334.544 147.26C333.224 148.58 331.604 149.78 329.684 150.86C327.764 151.94 325.524 152.98 322.964 153.98C322.964 154.22 322.944 154.48 322.904 154.76C322.904 155 322.904 155.26 322.904 155.54C322.904 156.06 322.944 156.6 323.024 157.16C323.104 157.72 323.244 158.24 323.444 158.72C323.644 159.2 323.924 159.6 324.284 159.92C324.644 160.2 325.104 160.34 325.664 160.34C326.744 160.34 327.804 160.1 328.844 159.62C329.884 159.14 330.864 158.56 331.784 157.88C332.744 157.16 333.624 156.4 334.424 155.6C335.264 154.76 336.004 154 336.644 153.32C337.044 153.68 337.384 154.02 337.664 154.34C335.864 156.74 333.884 158.74 331.724 160.34C329.604 161.9 327.584 162.9 325.664 163.34C322.904 163.02 320.744 162.02 319.184 160.34C317.664 158.62 316.904 156.56 316.904 154.16C316.904 152.52 317.124 150.86 317.564 149.18C318.044 147.46 318.684 145.82 319.484 144.26C320.324 142.66 321.284 141.16 322.364 139.76C323.484 138.36 324.664 137.14 325.904 136.1C327.184 135.06 328.484 134.24 329.804 133.64C331.164 133.04 332.504 132.74 333.824 132.74C335.664 132.98 337.384 134.12 338.984 136.16ZM334.844 138.14C333.764 138.3 332.644 138.74 331.484 139.46C330.324 140.18 329.224 141.14 328.184 142.34C327.184 143.54 326.264 144.94 325.424 146.54C324.584 148.14 323.924 149.86 323.444 151.7C326.644 150.1 329.304 148.14 331.424 145.82C333.544 143.46 334.684 140.9 334.844 138.14ZM341.701 157.16C341.701 155.4 342.121 152.94 342.961 149.78C343.801 146.58 344.981 142.86 346.501 138.62C348.981 131.86 351.301 126.24 353.461 121.76C355.661 117.24 357.801 113.72 359.881 111.2C360.361 111.28 360.941 111.48 361.621 111.8C362.341 112.12 363.041 112.48 363.721 112.88C364.401 113.24 365.001 113.62 365.521 114.02C366.081 114.42 366.441 114.74 366.601 114.98C363.481 118.66 360.741 122.62 358.381 126.86C356.021 131.1 353.861 135.96 351.901 141.44C350.221 146.16 348.941 150.42 348.061 154.22C347.181 157.98 346.741 161.12 346.741 163.64C346.741 164.32 346.741 164.74 346.741 164.9C346.741 165.06 346.761 165.22 346.801 165.38C346.241 165.3 345.761 165.16 345.361 164.96C344.961 164.76 344.701 164.52 344.581 164.24C344.501 164.04 344.281 163.74 343.921 163.34C343.561 162.98 343.241 162.7 342.961 162.5C342.601 162.26 342.301 161.64 342.061 160.64C341.821 159.6 341.701 158.44 341.701 157.16ZM377.187 136.16C377.027 138.64 376.587 140.78 375.867 142.58C375.147 144.34 374.107 145.9 372.747 147.26C371.427 148.58 369.807 149.78 367.887 150.86C365.967 151.94 363.727 152.98 361.167 153.98C361.167 154.22 361.147 154.48 361.107 154.76C361.107 155 361.107 155.26 361.107 155.54C361.107 156.06 361.147 156.6 361.227 157.16C361.307 157.72 361.447 158.24 361.647 158.72C361.847 159.2 362.127 159.6 362.487 159.92C362.847 160.2 363.307 160.34 363.867 160.34C364.947 160.34 366.007 160.1 367.047 159.62C368.087 159.14 369.067 158.56 369.987 157.88C370.947 157.16 371.827 156.4 372.627 155.6C373.467 154.76 374.207 154 374.847 153.32C375.247 153.68 375.587 154.02 375.867 154.34C374.067 156.74 372.087 158.74 369.927 160.34C367.807 161.9 365.787 162.9 363.867 163.34C361.107 163.02 358.947 162.02 357.387 160.34C355.867 158.62 355.107 156.56 355.107 154.16C355.107 152.52 355.327 150.86 355.767 149.18C356.247 147.46 356.887 145.82 357.687 144.26C358.527 142.66 359.487 141.16 360.567 139.76C361.687 138.36 362.867 137.14 364.107 136.1C365.387 135.06 366.687 134.24 368.007 133.64C369.367 133.04 370.707 132.74 372.027 132.74C373.867 132.98 375.587 134.12 377.187 136.16ZM373.047 138.14C371.967 138.3 370.847 138.74 369.687 139.46C368.527 140.18 367.427 141.14 366.387 142.34C365.387 143.54 364.467 144.94 363.627 146.54C362.787 148.14 362.127 149.86 361.647 151.7C364.847 150.1 367.507 148.14 369.627 145.82C371.747 143.46 372.887 140.9 373.047 138.14ZM380.325 150.44C380.325 148.16 380.785 145.96 381.705 143.84C382.665 141.68 383.905 139.78 385.425 138.14C386.985 136.46 388.745 135.12 390.705 134.12C392.705 133.08 394.765 132.56 396.885 132.56C398.965 132.56 400.565 133.08 401.685 134.12C402.805 135.16 403.365 136.64 403.365 138.56C403.365 139.48 403.225 140.38 402.945 141.26C402.705 142.1 402.365 142.86 401.925 143.54C401.525 144.22 401.045 144.78 400.485 145.22C399.925 145.62 399.365 145.82 398.805 145.82C398.325 145.82 397.825 145.68 397.305 145.4C396.825 145.08 396.425 144.68 396.105 144.2C398.785 141.76 400.125 139.54 400.125 137.54C400.125 136.38 399.665 135.8 398.745 135.8C397.945 135.8 396.945 136.18 395.745 136.94C394.545 137.7 393.385 138.7 392.265 139.94C390.545 141.86 389.225 144 388.305 146.36C387.425 148.68 386.985 151.12 386.985 153.68C386.985 156.92 387.705 158.86 389.145 159.5C389.745 159.42 390.445 159.24 391.245 158.96C392.045 158.68 392.905 158.32 393.825 157.88C394.745 157.4 395.685 156.86 396.645 156.26C397.645 155.66 398.605 155.02 399.525 154.34C399.685 154.46 399.825 154.64 399.945 154.88C400.065 155.12 400.125 155.34 400.125 155.54C399.445 156.38 398.665 157.2 397.785 158C396.905 158.8 395.985 159.54 395.025 160.22C394.065 160.86 393.125 161.4 392.205 161.84C391.325 162.32 390.545 162.62 389.865 162.74C388.545 162.62 387.305 162.2 386.145 161.48C384.985 160.8 383.965 159.9 383.085 158.78C382.245 157.66 381.565 156.38 381.045 154.94C380.565 153.5 380.325 152 380.325 150.44ZM405.1 159.98C405.1 158.58 405.24 156.94 405.52 155.06C405.8 153.14 406.2 151.1 406.72 148.94C407.28 146.78 407.92 144.52 408.64 142.16C409.4 139.8 410.24 137.44 411.16 135.08C411.96 132.96 412.88 130.82 413.92 128.66C415 126.5 416.16 124.38 417.4 122.3C418.64 120.22 419.92 118.24 421.24 116.36C422.6 114.48 423.96 112.76 425.32 111.2C425.96 111.2 426.64 111.28 427.36 111.44C428.12 111.6 428.84 111.82 429.52 112.1C430.24 112.34 430.88 112.64 431.44 113C432.04 113.36 432.52 113.72 432.88 114.08C429.88 117.16 427.18 120.28 424.78 123.44C422.38 126.56 420.48 129.5 419.08 132.26C418.32 133.78 417.62 135.2 416.98 136.52C416.38 137.84 415.82 139.16 415.3 140.48C414.78 141.76 414.3 143.06 413.86 144.38C413.46 145.66 413.08 147.02 412.72 148.46C420.4 138.66 426.1 133.76 429.82 133.76C430.86 133.76 431.98 134.1 433.18 134.78C434.38 135.46 435.44 136.38 436.36 137.54C435.12 138.9 433.84 140.54 432.52 142.46C431.2 144.38 429.98 146.32 428.86 148.28C427.78 150.2 426.88 152 426.16 153.68C425.48 155.32 425.14 156.54 425.14 157.34C425.14 157.74 425.2 158.02 425.32 158.18C425.44 158.3 425.7 158.36 426.1 158.36C426.7 158.36 427.18 158.28 427.54 158.12C427.9 157.96 428.12 157.88 428.2 157.88C428.4 158.2 428.52 158.42 428.56 158.54C428.6 158.66 428.62 158.76 428.62 158.84C428.62 159 428.38 159.24 427.9 159.56C427.42 159.84 426.84 160.14 426.16 160.46C425.52 160.74 424.88 161 424.24 161.24C423.6 161.48 423.12 161.6 422.8 161.6C422.4 161.6 422 161.48 421.6 161.24C421.2 161.04 420.84 160.76 420.52 160.4C420.24 160.04 420 159.64 419.8 159.2C419.64 158.76 419.56 158.3 419.56 157.82C419.56 157.22 419.72 156.34 420.04 155.18C420.4 153.98 420.88 152.6 421.48 151.04C422.08 149.44 422.8 147.7 423.64 145.82C424.48 143.94 425.38 142.02 426.34 140.06C426.34 139.9 426.26 139.82 426.1 139.82C425.98 139.82 425.66 139.98 425.14 140.3C424.66 140.62 424.2 140.94 423.76 141.26C422.32 142.34 420.86 143.68 419.38 145.28C417.94 146.84 416.52 148.56 415.12 150.44C413.76 152.32 412.46 154.32 411.22 156.44C410.02 158.52 408.98 160.62 408.1 162.74C407.98 163.02 407.8 163.28 407.56 163.52C407.32 163.76 407.12 163.88 406.96 163.88C406.84 163.88 406.66 163.74 406.42 163.46C406.22 163.18 406.02 162.82 405.82 162.38C405.66 161.98 405.5 161.56 405.34 161.12C405.18 160.68 405.1 160.3 405.1 159.98ZM457.636 136.16C457.476 138.64 457.036 140.78 456.316 142.58C455.596 144.34 454.556 145.9 453.196 147.26C451.876 148.58 450.256 149.78 448.336 150.86C446.416 151.94 444.176 152.98 441.616 153.98C441.616 154.22 441.596 154.48 441.556 154.76C441.556 155 441.556 155.26 441.556 155.54C441.556 156.06 441.596 156.6 441.676 157.16C441.756 157.72 441.896 158.24 442.096 158.72C442.296 159.2 442.576 159.6 442.936 159.92C443.296 160.2 443.756 160.34 444.316 160.34C445.396 160.34 446.456 160.1 447.496 159.62C448.536 159.14 449.516 158.56 450.436 157.88C451.396 157.16 452.276 156.4 453.076 155.6C453.916 154.76 454.656 154 455.296 153.32C455.696 153.68 456.036 154.02 456.316 154.34C454.516 156.74 452.536 158.74 450.376 160.34C448.256 161.9 446.236 162.9 444.316 163.34C441.556 163.02 439.396 162.02 437.836 160.34C436.316 158.62 435.556 156.56 435.556 154.16C435.556 152.52 435.776 150.86 436.216 149.18C436.696 147.46 437.336 145.82 438.136 144.26C438.976 142.66 439.936 141.16 441.016 139.76C442.136 138.36 443.316 137.14 444.556 136.1C445.836 135.06 447.136 134.24 448.456 133.64C449.816 133.04 451.156 132.74 452.476 132.74C454.316 132.98 456.036 134.12 457.636 136.16ZM453.496 138.14C452.416 138.3 451.296 138.74 450.136 139.46C448.976 140.18 447.876 141.14 446.836 142.34C445.836 143.54 444.916 144.94 444.076 146.54C443.236 148.14 442.576 149.86 442.096 151.7C445.296 150.1 447.956 148.14 450.076 145.82C452.196 143.46 453.336 140.9 453.496 138.14ZM460.534 155.36C460.534 153.92 460.894 151.92 461.614 149.36C462.374 146.8 463.354 144 464.554 140.96C465.754 137.92 467.114 134.78 468.634 131.54C470.154 128.3 471.674 125.28 473.194 122.48C474.754 119.68 476.234 117.26 477.634 115.22C479.074 113.18 480.294 111.8 481.294 111.08C481.854 111.12 482.454 111.36 483.094 111.8C483.774 112.24 484.394 112.78 484.954 113.42C485.514 114.02 485.974 114.66 486.334 115.34C486.734 116.02 486.934 116.64 486.934 117.2C485.134 118.64 483.294 120.5 481.414 122.78C479.574 125.02 477.814 127.5 476.134 130.22C474.454 132.9 472.894 135.76 471.454 138.8C470.054 141.8 468.874 144.76 467.914 147.68C469.194 145.48 470.534 143.48 471.934 141.68C473.334 139.88 474.734 138.34 476.134 137.06C477.534 135.78 478.894 134.8 480.214 134.12C481.574 133.4 482.854 133.02 484.054 132.98C485.814 134.26 486.694 135.96 486.694 138.08C486.694 139.36 486.434 140.66 485.914 141.98C485.394 143.26 484.694 144.46 483.814 145.58C482.974 146.66 481.994 147.6 480.874 148.4C479.794 149.16 478.654 149.66 477.454 149.9C477.854 151.3 478.354 152.72 478.954 154.16C479.594 155.6 480.334 157 481.174 158.36C482.054 159.72 483.034 160.98 484.114 162.14C485.234 163.3 486.494 164.28 487.894 165.08C487.694 165.48 487.394 165.88 486.994 166.28C486.594 166.68 486.114 167.02 485.554 167.3C484.994 167.62 484.374 167.86 483.694 168.02C483.054 168.22 482.414 168.32 481.774 168.32C480.694 168.32 479.674 167.78 478.714 166.7C477.794 165.62 476.954 164.06 476.194 162.02C475.594 160.38 475.014 158.42 474.454 156.14C473.894 153.86 473.394 151.48 472.954 149C473.514 148.64 474.214 148.12 475.054 147.44C475.894 146.72 476.774 145.9 477.694 144.98C481.214 141.58 482.974 138.64 482.974 136.16C482.974 135.84 482.754 135.68 482.314 135.68C481.514 135.72 480.574 136.1 479.494 136.82C478.414 137.54 477.254 138.54 476.014 139.82C474.814 141.1 473.574 142.6 472.294 144.32C471.054 146.04 469.854 147.9 468.694 149.9C468.214 150.7 467.774 151.62 467.374 152.66C466.974 153.7 466.614 154.78 466.294 155.9C466.014 156.98 465.794 158.06 465.634 159.14C465.474 160.22 465.394 161.22 465.394 162.14C465.394 162.7 465.454 163.16 465.574 163.52C464.334 163.4 463.574 163.08 463.294 162.56C462.974 162.08 462.694 161.68 462.454 161.36C462.254 161.08 462.034 160.84 461.794 160.64C461.434 160.36 461.134 159.76 460.894 158.84C460.654 157.92 460.534 156.76 460.534 155.36ZM509.908 157.88C510.508 156.56 511.228 154.86 512.068 152.78C512.908 150.7 513.788 148.46 514.708 146.06C515.628 143.62 516.568 141.14 517.528 138.62C518.488 136.06 519.388 133.64 520.228 131.36C521.068 129.08 521.788 127.04 522.388 125.24C523.028 123.44 523.488 122.06 523.768 121.1C521.248 122.14 519.088 123.72 517.288 125.84C515.488 127.96 514.128 130.62 513.208 133.82C512.288 133.5 511.448 132.94 510.688 132.14C509.928 131.3 509.428 130.26 509.188 129.02C509.588 127.18 510.328 125.5 511.408 123.98C512.528 122.46 513.928 121.16 515.608 120.08C517.288 119 519.228 118.18 521.428 117.62C523.628 117.02 525.988 116.72 528.508 116.72C531.708 116.72 534.648 117.2 537.328 118.16C540.008 119.08 542.308 120.38 544.228 122.06C546.148 123.74 547.648 125.76 548.728 128.12C549.808 130.48 550.348 133.1 550.348 135.98C550.348 139.9 549.628 143.64 548.188 147.2C546.748 150.76 544.788 153.9 542.308 156.62C539.868 159.34 537.028 161.5 533.788 163.1C530.548 164.74 527.148 165.56 523.588 165.56C520.308 165.56 517.488 164.9 515.128 163.58C512.808 162.3 511.068 160.4 509.908 157.88ZM531.088 119.72C529.088 119.72 527.188 120 525.388 120.56C527.148 121.2 528.608 121.88 529.768 122.6C530.928 123.28 531.728 123.82 532.168 124.22C531.848 124.66 531.368 125.44 530.728 126.56C530.128 127.68 529.408 129.04 528.568 130.64C527.768 132.24 526.908 134 525.988 135.92C525.068 137.8 524.168 139.74 523.288 141.74C521.008 146.82 519.348 150.82 518.308 153.74C517.308 156.66 516.808 158.68 516.808 159.8C517.368 160 518.048 160.14 518.848 160.22C519.648 160.3 520.508 160.34 521.428 160.34C524.668 160.34 527.728 159.6 530.608 158.12C533.528 156.6 536.068 154.58 538.228 152.06C540.428 149.54 542.148 146.62 543.388 143.3C544.668 139.94 545.308 136.42 545.308 132.74C545.308 128.62 544.028 125.42 541.468 123.14C538.908 120.86 535.448 119.72 531.088 119.72ZM573.827 136.16C573.667 138.64 573.227 140.78 572.507 142.58C571.787 144.34 570.747 145.9 569.387 147.26C568.067 148.58 566.447 149.78 564.527 150.86C562.607 151.94 560.367 152.98 557.807 153.98C557.807 154.22 557.787 154.48 557.747 154.76C557.747 155 557.747 155.26 557.747 155.54C557.747 156.06 557.787 156.6 557.867 157.16C557.947 157.72 558.087 158.24 558.287 158.72C558.487 159.2 558.767 159.6 559.127 159.92C559.487 160.2 559.947 160.34 560.507 160.34C561.587 160.34 562.647 160.1 563.687 159.62C564.727 159.14 565.707 158.56 566.627 157.88C567.587 157.16 568.467 156.4 569.267 155.6C570.107 154.76 570.847 154 571.487 153.32C571.887 153.68 572.227 154.02 572.507 154.34C570.707 156.74 568.727 158.74 566.567 160.34C564.447 161.9 562.427 162.9 560.507 163.34C557.747 163.02 555.587 162.02 554.027 160.34C552.507 158.62 551.747 156.56 551.747 154.16C551.747 152.52 551.967 150.86 552.407 149.18C552.887 147.46 553.527 145.82 554.327 144.26C555.167 142.66 556.127 141.16 557.207 139.76C558.327 138.36 559.507 137.14 560.747 136.1C562.027 135.06 563.327 134.24 564.647 133.64C566.007 133.04 567.347 132.74 568.667 132.74C570.507 132.98 572.227 134.12 573.827 136.16ZM569.687 138.14C568.607 138.3 567.487 138.74 566.327 139.46C565.167 140.18 564.067 141.14 563.027 142.34C562.027 143.54 561.107 144.94 560.267 146.54C559.427 148.14 558.767 149.86 558.287 151.7C561.487 150.1 564.147 148.14 566.267 145.82C568.387 143.46 569.527 140.9 569.687 138.14ZM579.495 139.76C579.495 139.04 579.535 138.36 579.615 137.72C579.735 137.08 579.955 136.54 580.275 136.1C580.595 135.62 581.035 135.26 581.595 135.02C582.155 134.74 582.895 134.6 583.815 134.6C584.375 134.6 584.995 134.66 585.675 134.78C586.395 134.9 586.915 135.12 587.235 135.44C587.075 136.12 586.935 136.72 586.815 137.24C586.735 137.76 586.655 138.34 586.575 138.98C586.535 139.58 586.495 140.32 586.455 141.2C586.415 142.04 586.375 143.14 586.335 144.5C586.255 147.22 586.115 149.66 585.915 151.82C585.755 153.94 585.355 156.06 584.715 158.18C584.715 158.34 584.775 158.42 584.895 158.42C585.495 157.98 586.175 157.34 586.935 156.5C587.695 155.66 588.495 154.72 589.335 153.68C590.175 152.6 591.015 151.46 591.855 150.26C592.695 149.06 593.475 147.88 594.195 146.72C595.155 145.04 596.215 142.94 597.375 140.42C598.535 137.9 599.495 135.2 600.255 132.32C600.495 132.32 600.795 132.38 601.155 132.5C601.555 132.58 601.935 132.7 602.295 132.86C602.695 132.98 603.035 133.12 603.315 133.28C603.635 133.44 603.855 133.58 603.975 133.7C603.895 135.42 603.475 137.18 602.715 138.98C601.995 140.78 601.115 142.52 600.075 144.2C599.035 145.88 597.935 147.46 596.775 148.94C595.615 150.42 594.555 151.7 593.595 152.78C591.675 155.02 589.735 157.02 587.775 158.78C585.855 160.54 583.555 162.24 580.875 163.88C579.835 163.48 579.015 162.94 578.415 162.26C577.815 161.62 577.515 160.94 577.515 160.22C577.515 159.74 577.615 159.2 577.815 158.6C578.055 157.96 578.315 157.16 578.595 156.2C578.875 155.2 579.115 153.96 579.315 152.48C579.555 151 579.675 149.12 579.675 146.84C579.675 145.52 579.635 144.2 579.555 142.88C579.515 141.52 579.495 140.48 579.495 139.76ZM624.57 136.16C624.41 138.64 623.97 140.78 623.25 142.58C622.53 144.34 621.49 145.9 620.13 147.26C618.81 148.58 617.19 149.78 615.27 150.86C613.35 151.94 611.11 152.98 608.55 153.98C608.55 154.22 608.53 154.48 608.49 154.76C608.49 155 608.49 155.26 608.49 155.54C608.49 156.06 608.53 156.6 608.61 157.16C608.69 157.72 608.83 158.24 609.03 158.72C609.23 159.2 609.51 159.6 609.87 159.92C610.23 160.2 610.69 160.34 611.25 160.34C612.33 160.34 613.39 160.1 614.43 159.62C615.47 159.14 616.45 158.56 617.37 157.88C618.33 157.16 619.21 156.4 620.01 155.6C620.85 154.76 621.59 154 622.23 153.32C622.63 153.68 622.97 154.02 623.25 154.34C621.45 156.74 619.47 158.74 617.31 160.34C615.19 161.9 613.17 162.9 611.25 163.34C608.49 163.02 606.33 162.02 604.77 160.34C603.25 158.62 602.49 156.56 602.49 154.16C602.49 152.52 602.71 150.86 603.15 149.18C603.63 147.46 604.27 145.82 605.07 144.26C605.91 142.66 606.87 141.16 607.95 139.76C609.07 138.36 610.25 137.14 611.49 136.1C612.77 135.06 614.07 134.24 615.39 133.64C616.75 133.04 618.09 132.74 619.41 132.74C621.25 132.98 622.97 134.12 624.57 136.16ZM620.43 138.14C619.35 138.3 618.23 138.74 617.07 139.46C615.91 140.18 614.81 141.14 613.77 142.34C612.77 143.54 611.85 144.94 611.01 146.54C610.17 148.14 609.51 149.86 609.03 151.7C612.23 150.1 614.89 148.14 617.01 145.82C619.13 143.46 620.27 140.9 620.43 138.14ZM627.287 157.16C627.287 155.4 627.707 152.94 628.547 149.78C629.387 146.58 630.567 142.86 632.087 138.62C634.567 131.86 636.887 126.24 639.047 121.76C641.247 117.24 643.387 113.72 645.467 111.2C645.947 111.28 646.527 111.48 647.207 111.8C647.927 112.12 648.627 112.48 649.307 112.88C649.987 113.24 650.587 113.62 651.107 114.02C651.667 114.42 652.027 114.74 652.187 114.98C649.067 118.66 646.327 122.62 643.967 126.86C641.607 131.1 639.447 135.96 637.487 141.44C635.807 146.16 634.527 150.42 633.647 154.22C632.767 157.98 632.327 161.12 632.327 163.64C632.327 164.32 632.327 164.74 632.327 164.9C632.327 165.06 632.347 165.22 632.387 165.38C631.827 165.3 631.347 165.16 630.947 164.96C630.547 164.76 630.287 164.52 630.167 164.24C630.087 164.04 629.867 163.74 629.507 163.34C629.147 162.98 628.827 162.7 628.547 162.5C628.187 162.26 627.887 161.64 627.647 160.64C627.407 159.6 627.287 158.44 627.287 157.16ZM648.373 163.1C646.093 162.86 644.273 161.86 642.913 160.1C641.553 158.34 640.873 156.1 640.873 153.38C640.873 151.78 641.113 150.12 641.593 148.4C642.073 146.68 642.753 145.02 643.633 143.42C644.513 141.78 645.553 140.24 646.753 138.8C647.953 137.36 649.253 136.12 650.653 135.08C652.853 133.44 654.913 132.62 656.833 132.62C658.113 133.3 659.373 134.72 660.613 136.88C660.813 136.88 660.993 136.88 661.153 136.88C661.313 136.84 661.493 136.82 661.693 136.82C663.813 136.82 664.873 138.7 664.873 142.46C664.873 144.98 664.453 147.38 663.613 149.66C662.813 151.9 661.673 153.94 660.193 155.78C658.753 157.62 657.013 159.18 654.973 160.46C652.973 161.7 650.773 162.58 648.373 163.1ZM651.433 144.2C650.753 145.12 650.113 146.12 649.513 147.2C648.913 148.28 648.393 149.38 647.953 150.5C647.513 151.58 647.173 152.64 646.933 153.68C646.693 154.68 646.573 155.58 646.573 156.38C646.573 157.34 646.733 158.26 647.053 159.14C647.373 160.02 647.733 160.52 648.133 160.64C649.933 160.24 651.573 159.5 653.053 158.42C654.573 157.3 655.873 155.92 656.953 154.28C658.073 152.64 658.933 150.78 659.533 148.7C660.173 146.62 660.493 144.4 660.493 142.04C660.493 141 660.433 140.18 660.313 139.58C660.193 138.98 659.993 138.46 659.713 138.02C657.953 138.54 656.373 139.38 654.973 140.54C653.613 141.7 652.433 142.92 651.433 144.2ZM663.397 180.86C662.837 180.7 662.517 180.1 662.437 179.06C662.277 178.54 662.157 177.92 662.077 177.2C662.037 176.48 662.017 175.66 662.017 174.74C662.017 173.9 662.157 172.74 662.437 171.26C662.717 169.82 663.097 168.18 663.577 166.34C664.097 164.5 664.717 162.52 665.437 160.4C666.157 158.24 666.957 156.06 667.837 153.86C668.917 151.1 669.857 148.72 670.657 146.72C671.457 144.68 672.117 142.92 672.637 141.44C673.197 139.96 673.637 138.74 673.957 137.78C674.317 136.82 674.597 136 674.797 135.32C674.957 134.84 675.197 134.26 675.517 133.58C675.837 132.9 676.197 132.22 676.597 131.54C677.037 130.82 677.477 130.16 677.917 129.56C678.357 128.92 678.757 128.44 679.117 128.12C680.517 128.32 681.837 128.68 683.077 129.2C684.317 129.72 685.077 130.22 685.357 130.7C684.797 131.22 684.157 132.04 683.437 133.16C682.717 134.24 682.017 135.44 681.337 136.76C680.657 138.04 680.037 139.36 679.477 140.72C678.917 142.08 678.497 143.28 678.217 144.32C678.617 143.64 679.137 142.9 679.777 142.1C680.417 141.3 681.397 140.2 682.717 138.8C684.197 137.28 685.577 136.12 686.857 135.32C688.177 134.48 689.317 134.06 690.277 134.06C691.797 134.06 693.037 134.48 693.997 135.32C694.997 136.16 695.497 137.24 695.497 138.56C695.497 141.44 695.017 144.3 694.057 147.14C693.097 149.94 691.717 152.48 689.917 154.76C689.237 155.64 688.437 156.48 687.517 157.28C686.597 158.08 685.637 158.8 684.637 159.44C683.637 160.04 682.657 160.52 681.697 160.88C680.737 161.24 679.877 161.42 679.117 161.42C678.397 161.42 677.757 161.28 677.197 161C676.677 160.68 676.317 160.3 676.117 159.86C677.677 158.94 679.197 157.66 680.677 156.02C682.157 154.38 683.517 152.5 684.757 150.38C686.037 148.22 687.137 145.9 688.057 143.42C689.017 140.94 689.737 138.42 690.217 135.86C688.697 136.66 687.317 137.54 686.077 138.5C684.877 139.42 683.677 140.64 682.477 142.16C681.037 143.92 679.897 145.34 679.057 146.42C678.217 147.5 677.517 148.42 676.957 149.18C676.437 149.94 675.997 150.66 675.637 151.34C675.317 151.98 674.957 152.78 674.557 153.74C673.997 155.02 673.337 156.72 672.577 158.84C671.857 160.92 671.097 163.26 670.297 165.86C669.537 168.46 668.757 171.22 667.957 174.14C667.197 177.1 666.457 180.04 665.737 182.96C665.297 182.88 664.917 182.56 664.597 182C664.277 181.64 664.037 181.38 663.877 181.22C663.757 181.06 663.597 180.94 663.397 180.86ZM719.14 136.16C718.98 138.64 718.54 140.78 717.82 142.58C717.1 144.34 716.06 145.9 714.7 147.26C713.38 148.58 711.76 149.78 709.84 150.86C707.92 151.94 705.68 152.98 703.12 153.98C703.12 154.22 703.1 154.48 703.06 154.76C703.06 155 703.06 155.26 703.06 155.54C703.06 156.06 703.1 156.6 703.18 157.16C703.26 157.72 703.4 158.24 703.6 158.72C703.8 159.2 704.08 159.6 704.44 159.92C704.8 160.2 705.26 160.34 705.82 160.34C706.9 160.34 707.96 160.1 709 159.62C710.04 159.14 711.02 158.56 711.94 157.88C712.9 157.16 713.78 156.4 714.58 155.6C715.42 154.76 716.16 154 716.8 153.32C717.2 153.68 717.54 154.02 717.82 154.34C716.02 156.74 714.04 158.74 711.88 160.34C709.76 161.9 707.74 162.9 705.82 163.34C703.06 163.02 700.9 162.02 699.34 160.34C697.82 158.62 697.06 156.56 697.06 154.16C697.06 152.52 697.28 150.86 697.72 149.18C698.2 147.46 698.84 145.82 699.64 144.26C700.48 142.66 701.44 141.16 702.52 139.76C703.64 138.36 704.82 137.14 706.06 136.1C707.34 135.06 708.64 134.24 709.96 133.64C711.32 133.04 712.66 132.74 713.98 132.74C715.82 132.98 717.54 134.12 719.14 136.16ZM715 138.14C713.92 138.3 712.8 138.74 711.64 139.46C710.48 140.18 709.38 141.14 708.34 142.34C707.34 143.54 706.42 144.94 705.58 146.54C704.74 148.14 704.08 149.86 703.6 151.7C706.8 150.1 709.46 148.14 711.58 145.82C713.7 143.46 714.84 140.9 715 138.14ZM720.478 159.8C720.678 158.64 721.018 157.12 721.498 155.24C722.018 153.32 722.618 151.3 723.298 149.18C723.978 147.02 724.698 144.86 725.458 142.7C726.218 140.54 726.958 138.6 727.678 136.88C728.198 135.64 728.658 134.68 729.058 134C729.458 133.28 729.898 132.68 730.378 132.2C730.938 132.28 731.518 132.42 732.118 132.62C732.718 132.82 733.298 133.06 733.858 133.34C734.418 133.62 734.918 133.92 735.358 134.24C735.798 134.52 736.138 134.8 736.378 135.08C735.298 136.36 734.338 137.82 733.498 139.46C732.698 141.1 731.878 143.2 731.038 145.76C733.198 143.84 735.098 142 736.738 140.24C738.418 138.48 739.978 136.52 741.418 134.36C741.658 134.16 742.078 134.06 742.678 134.06C743.238 134.06 743.778 134.16 744.298 134.36C744.818 134.52 745.178 134.76 745.378 135.08C744.658 137 744.298 138.9 744.298 140.78C744.298 142.54 744.558 143.86 745.078 144.74C745.038 144.98 744.758 145.44 744.238 146.12C743.758 146.8 743.218 147.44 742.618 148.04C741.538 147.48 740.578 146.72 739.738 145.76C738.898 144.76 738.278 143.68 737.878 142.52C735.998 143.84 734.398 145.14 733.078 146.42C731.758 147.66 730.618 149.06 729.658 150.62C728.738 152.14 727.938 153.9 727.258 155.9C726.618 157.9 725.998 160.28 725.398 163.04C725.038 163 724.598 162.86 724.078 162.62C723.598 162.42 723.098 162.16 722.578 161.84C722.098 161.52 721.658 161.18 721.258 160.82C720.858 160.46 720.598 160.12 720.478 159.8ZM765.879 137.12C765.839 137.88 765.699 138.68 765.459 139.52C765.259 140.32 764.999 141.06 764.679 141.74C764.359 142.38 764.019 142.92 763.659 143.36C763.299 143.8 762.959 144.02 762.639 144.02C762.199 143.98 761.939 143.68 761.859 143.12C761.859 143 761.899 142.82 761.979 142.58C762.099 142.3 762.219 142 762.339 141.68C762.459 141.36 762.559 141.04 762.639 140.72C762.759 140.4 762.819 140.12 762.819 139.88C762.819 139.32 762.679 138.86 762.399 138.5C762.159 138.1 761.819 137.9 761.379 137.9C759.779 137.9 758.559 138.9 757.719 140.9C756.879 142.9 756.459 145.84 756.459 149.72C756.459 150.12 756.479 150.36 756.519 150.44C757.359 150.4 758.099 150.38 758.739 150.38C759.419 150.34 760.079 150.32 760.719 150.32C760.759 150.4 760.779 150.56 760.779 150.8C760.779 151.16 760.699 151.42 760.539 151.58C759.619 151.78 758.879 151.96 758.319 152.12C757.799 152.24 757.399 152.36 757.119 152.48C756.839 152.6 756.659 152.74 756.579 152.9C756.539 153.02 756.519 153.2 756.519 153.44C756.519 153.76 756.519 154.08 756.519 154.4C756.559 154.72 756.579 155.12 756.579 155.6C756.579 158.96 755.659 161.66 753.819 163.7C752.019 165.74 749.499 166.92 746.259 167.24C745.699 167.2 745.119 167.04 744.519 166.76C743.919 166.48 743.339 166.12 742.779 165.68C742.259 165.24 741.799 164.74 741.399 164.18C740.999 163.66 740.719 163.12 740.559 162.56C740.559 161.04 740.879 159.6 741.519 158.24C742.159 156.84 743.019 155.62 744.099 154.58C745.219 153.5 746.519 152.64 747.999 152C749.519 151.32 751.159 150.92 752.919 150.8C752.919 149.8 752.819 148.82 752.619 147.86C752.419 146.9 752.199 145.98 751.959 145.1C751.759 144.18 751.559 143.3 751.359 142.46C751.159 141.58 751.059 140.72 751.059 139.88C751.059 138.8 751.279 137.74 751.719 136.7C752.159 135.62 752.739 134.64 753.459 133.76C754.179 132.84 755.019 132.06 755.979 131.42C756.939 130.78 757.939 130.34 758.979 130.1C759.419 130.22 759.999 130.58 760.719 131.18C761.479 131.74 762.219 132.38 762.939 133.1C763.659 133.82 764.299 134.56 764.859 135.32C765.419 136.04 765.759 136.64 765.879 137.12ZM746.079 164.48C747.039 164.08 747.939 163.5 748.779 162.74C749.659 161.98 750.419 161.12 751.059 160.16C751.699 159.2 752.199 158.18 752.559 157.1C752.959 156.02 753.159 154.96 753.159 153.92C752.359 154.04 751.479 154.42 750.519 155.06C749.559 155.66 748.659 156.4 747.819 157.28C746.979 158.12 746.279 159 745.719 159.92C745.159 160.84 744.879 161.64 744.879 162.32C744.879 163.2 745.279 163.92 746.079 164.48Z" fill="black"/>
<defs>
<clipPath id="clip0_203_2">
<rect width="309" height="285" fill="white"/>
</clipPath>
</defs>
</svg>
